<?xml version="1.0" standalone="no"?>
<!DOCTYPE svg PUBLIC "-//W3C//DTD SVG 20010904//EN"
 "http://www.w3.org/TR/2001/REC-SVG-20010904/DTD/svg10.dtd">
<svg version="1.0" xmlns="http://www.w3.org/2000/svg"
 width="700.000000pt" height="700.000000pt" viewBox="0 0 700.000000 700.000000"
 preserveAspectRatio="xMidYMid meet">
<metadata>
Created by potrace 1.14, written by Peter Selinger 2001-2017
</metadata>
<g transform="translate(0.000000,700.000000) scale(0.100000,-0.100000)"
fill="#000000" stroke="none">
<path d="M0 3500 l0 -3500 3500 0 3500 0 0 3500 0 3500 -3500 0 -3500 0 0
-3500z m3800 3255 c277 -25 516 -77 787 -169 600 -206 1144 -603 1533 -1121
352 -468 556 -976 637 -1580 24 -183 24 -589 -1 -780 -74 -583 -283 -1107
-621 -1560 -545 -730 -1326 -1184 -2240 -1301 -194 -25 -586 -25 -780 0 -486
62 -890 201 -1309 450 -65 39 -123 80 -128 91 -15 33 2 58 103 146 125 110
200 177 598 528 184 163 454 401 600 530 146 128 298 262 336 296 39 34 119
105 178 157 l108 95 127 6 c148 6 248 30 369 87 127 59 189 105 305 222 59 59
114 108 122 108 8 0 205 -154 438 -343 368 -299 423 -347 426 -373 4 -49 -149
-212 -365 -391 -89 -73 -187 -138 -298 -199 -315 -173 -635 -254 -1003 -254
-274 0 -477 33 -713 113 l-125 44 -385 -339 c-211 -186 -393 -347 -403 -358
-18 -18 -17 -19 50 -53 165 -83 438 -185 619 -231 298 -75 646 -108 925 -86
528 40 1001 194 1425 462 700 444 1183 1149 1344 1963 41 208 54 342 54 580 0
405 -65 746 -210 1110 -243 609 -650 1100 -1198 1444 -124 78 -427 227 -560
276 -131 48 -399 119 -550 145 -336 58 -742 51 -1080 -19 -1194 -246 -2105
-1146 -2359 -2331 -49 -228 -61 -347 -61 -620 0 -292 17 -445 76 -697 77 -327
233 -687 421 -970 l81 -123 51 48 c28 26 214 190 412 365 l361 317 -67 133
c-68 137 -146 360 -174 497 -39 191 -50 486 -26 685 54 459 267 891 608 1233
400 404 900 612 1468 612 507 0 978 -171 1377 -500 98 -80 107 -102 60 -147
-144 -134 -798 -699 -813 -701 -11 -2 -39 10 -62 26 -96 66 -254 133 -373 158
-89 19 -258 19 -355 0 -351 -68 -618 -328 -722 -704 -18 -64 -22 -104 -22
-237 0 -181 16 -260 79 -394 19 -40 35 -83 35 -96 0 -17 -87 -99 -367 -346
-201 -178 -398 -351 -436 -384 -39 -33 -261 -229 -495 -435 -233 -206 -451
-399 -484 -428 -36 -31 -69 -52 -83 -52 -29 0 -86 64 -204 228 -323 451 -524
977 -593 1547 -19 166 -16 597 6 760 78 573 269 1061 588 1508 207 289 475
556 768 764 630 449 1414 659 2190 588z"/>
<path d="M3370 6713 c-277 -19 -462 -46 -665 -99 -1067 -275 -1910 -1062
-2256 -2104 -250 -756 -213 -1572 105 -2305 113 -262 304 -572 468 -763 l28
-33 51 48 c28 26 67 63 87 81 99 94 847 750 874 767 9 6 132 113 274 239 143
126 318 281 390 345 l132 116 -15 35 c-82 186 -102 277 -103 450 0 175 23 285
95 445 93 207 299 410 500 494 194 81 430 98 630 46 87 -23 239 -90 305 -135
l56 -38 369 324 c204 179 382 337 397 352 l27 27 -82 66 c-216 173 -448 298
-712 382 -724 232 -1512 40 -2052 -500 -255 -255 -453 -601 -544 -951 -73
-285 -79 -647 -15 -949 35 -164 147 -447 230 -580 l26 -41 -242 -214 c-586
-517 -658 -579 -667 -573 -26 15 -215 317 -283 450 -169 333 -266 644 -320
1025 -17 128 -18 622 0 750 87 618 317 1146 700 1600 106 126 312 327 441 429
395 313 856 523 1356 615 215 39 241 41 555 41 301 -1 322 -2 475 -29 188 -34
439 -99 580 -151 133 -49 436 -198 560 -276 742 -466 1250 -1220 1399 -2079
32 -185 40 -284 41 -515 0 -447 -71 -812 -237 -1200 -249 -584 -656 -1062
-1193 -1403 -381 -241 -823 -395 -1300 -454 -160 -19 -547 -16 -705 6 -264 37
-483 91 -704 173 -124 47 -317 134 -394 179 -37 22 -41 28 -30 41 16 19 722
643 859 760 14 12 29 9 106 -21 503 -192 1069 -182 1553 27 167 72 365 192
490 296 166 139 343 323 324 340 -37 33 -805 651 -809 651 -3 0 -40 -37 -82
-81 -97 -101 -169 -158 -277 -215 -149 -79 -285 -114 -451 -114 l-90 0 -111
-98 c-132 -116 -683 -604 -973 -862 -248 -220 -661 -584 -749 -658 -34 -30
-62 -57 -62 -61 0 -12 188 -122 335 -196 449 -227 919 -336 1440 -336 611 0
1156 152 1677 467 728 440 1252 1162 1453 1999 58 240 76 390 82 676 7 341
-14 550 -86 844 -310 1265 -1369 2230 -2651 2415 -218 31 -455 44 -610 33z"/>
</g>
</svg>
